/* XPM */
static char *result[] = {
/* columns rows colors chars-per-pixel */
"100 100 80 1 ",
"  c #6B5766",
". c #6E5967",
"X c #705967",
"o c #745C69",
"O c #7D5E6B",
"+ c #7E626D",
"@ c #815F6E",
"# c #83636E",
"$ c #89626F",
"% c #846670",
"& c #8D6571",
"* c #866972",
"= c #8C6C74",
"- c #916571",
"; c #946D75",
": c #9A6975",
"> c #897176",
", c #8B777B",
"< c #8C797D",
"1 c #947077",
"2 c #997177",
"3 c #957378",
"4 c #9A757A",
"5 c #9D797C",
"6 c #A16B77",
"7 c #A46D79",
"8 c #AC6F7B",
"9 c #A4727A",
"0 c #AD707B",
"q c #A27B7E",
"w c #AC7A7F",
"e c #B0767E",
"r c #B2787F",
"t c #9F7F80",
"y c #A67E80",
"u c #AB7D81",
"i c #B37C81",
"p c #9D8181",
"a c #A28383",
"s c #AC8383",
"d c #A48987",
"f c #AD8886",
"g c #A48B88",
"h c #AC8D8A",
"j c #B38485",
"k c #B98486",
"l c #B38987",
"z c #B98887",
"x c #B68688",
"c c #BA8788",
"v c #B58A89",
"b c #BC8C8B",
"n c #A6908D",
"m c #B6918D",
"M c #BE918D",
"N c #A89390",
"B c #AB9A97",
"V c #AB9B98",
"C c #BB9792",
"Z c #BB9B94",
"A c #BFA199",
"S c #C08F8D",
"D c #C1928F",
"F c #C39490",
"G c #C59A94",
"H c #C89D97",
"J c #C69E98",
"K c #C99F98",
"L c #C3A29B",
"P c #CAA49C",
"I c #CDA99F",
"U c #CDABA0",
"Y c #C5B0A7",
"T c #CFB2A7",
"R c #C6B2A9",
"E c #C8B7AE",
"W c #D2B4AB",
"Q c #D4B8AE",
"! c #D4BEB3",
"~ c #D6C0B6",
/* pixels */
"=;334555qq5q5qqqqqqqtyyyyysllzssysyqqqyww54;**#++X.......o%===;;1112225qytqqsfvvzzssfvlvlmzzlzsy5==#",
"455ywaawsqyyassqyssssssflllbzmvljksuwyssjssq441=*#......ooO#&&=-:::29qyssssslzMMDMmzzbbbbbbmzmls5;%+",
"assjjfffsssssfsfssflllllzzbmMMbbbzlljsjsllvjsusw4o.. .. .oO&&;:6688ebSSDMvllzmMFDSDMMMbMbbbbzzs52==%",
"qssjzzllslllllllvbbbmbMDFDDDDDSbbzbvjjjkkxbbbDDb4X..o..o..o&:678000kDFFFDMzzbmMDDDDSMMMbbzmmmly51==%",
"jsfjvMMbblllzbbMDDDDFDFFFFDFDDzzkkxxzxxkkkbFDlsa=X .. X  XO:788888eSFFFDFMMmMMMFDMMMMMbzzMbbbzfsyy92",
"vbbbMMMDmbbMMMDDDDDFFFDFFFFFFFDkcDckkiiiiibFD5#++Xooooooo@-7888888eSFFFFFMMMMMMFDDDDMSMMMSMbMbzmllsq",
"MbMMMDDDDDDDDDDDDDFFFFFFFFFDFFDbFPFMGJJJFbDFDlu9#o@-::::::78008088eSFFFFFFFMFDDSDDDMDMDDMMMbmbzzzfjs",
"DDDDDDDDDDFFFDFDDDFFFFFFFFFFFFFFGUJGPUIUPFDFFFDx1O-788000000808088eSDFFFFFDFDDFFFDDDDDDMMMMMMbmzzzll",
"FDFFFFFFDFFDFFFFDDDFFFFFDFFFFFFFFGFFGGGGFFFDFFFS2@6800000000808008ebDDFFFFFFFDFFFFDMDDFFFDDFFDFDDMSz",
"FFFFFFFDFFFFFFFFDSFDFFFFFFFFFFFFFDFFFFDDFFFFFFFD5#6000880000000008ecFDFFFFFFFFFFFFbDFFFFFFFDFDDMmzzj",
"FFFFFFDDFFFFFFFDDSDDFFFFFFFFFDDFFFFFFFFFFFFFFFFb2#:880888008008008ecDDDFFFFFFFFFFFzFFFDDFFFFFDDSbzls",
":FFFFDDDDFFFFFFFFFzDDDFDFDFDFDDDDDFDbFDFDDFDFFbu-o-6888888888888000rSDDDDDDDDDFDDzFFFFDDFFFDDDbzzfy5",
"#$---------------:255555q45555555555q55qq55q554-OX+$-------&-------;2555q555q55552;------------$$#oX",
"OOOO@#O@OO@##OOO#%%%*%#o++%%***>=*>>>=>>==*%**%*%#+O@@OOO@@O@OO@O@##***#++o+##****###O@@@@@#@O##OOO+",
"FFDDDFFFDDFFDFDDDFmbmDi$O:qlvvvZZvCZAZLZAZmvlllvli9666666676676669wjlllj7@O;wllzzlzFSFFDDFFFSFFFFFSF",
"FFFDFFFFFDFFFDGDSDFFDDD;#wSDFFFPPGJUUIUUUPJFFFFFFSe8888888888888eibDFFDSk;#wSFFFDDDzzzDDDDDFDDDFFDFF",
"FFDFFDDFDFFDFFDSDDDFFFD4*lDFFFFFFFFFFGFGFFFFFFFFFDreeeeee0eee8eeiSSFFFFFM3*vFFFFFFFSSSSSSSDDDDFDFFFF",
"SSSSSSSSSDSSSSSSFDDDFGD5*bFDFFFFFFFFFFDFFFFFFDFFFDbbSScSScSScScSSSDDFFFFF5*vFFFFFFFFSSSSSSSSSbSbzbSz",
"DFFFFFDFFDDbSSDSSDbfsss=*vFFFFFFFFFFFFFFFFDFFFFFFFDDFFFDDFFFDScSDSbSFDzss>*vGFFFFFFFFFFFDDFFDDFFFFFF",
"DFFFFFFFDDDDDDSSrSj*+##o*mFDFFFDFFFFFDFFFFFFFFFFFFFFFFFFDDFFDrrrSbiSFDq#+o*vFFDFFFFDFFFFFFFFFDFFFFFF",
"FFFFFFFFFPPDDLPJbDbjay9#*bDFDFFFFDFFFFFDFFFFFFFFFFFFFFFFFFDHHSDJPJbDFDly4#*vFFFFFFFDFFFFFFFDFFFFFFFF",
"FFFFFDFFDIPFHIIPDDDFDDz1*vFFFFFFFFFFFFFFFFFFFFFFDFFFFDFFDFFPPGHIIPDDFFFDc2*vFFFDFFFFFFFFFFFFFFFFFFFF",
"FFFFFFFFFFGFFFGFFFFFDDS4*zGFFFFFFFFFFFFDFFFFFFFFFFFDFFFFFFDGHFFFHFFFFFFFS2*zFFFDFFFFFFFFFFFFFFFFFFFF",
"FFFFFFFFFFFFFFFFFFFFFSz;#wSFFFFDFFFGFDGGFFFFFFFFFFFGFFGFFGGFDFFFFFFFFFFDz;#wSDFGFFFFGFFFFFFFFFFFFFFF",
"bzvvvvvvvvvvbvvvblvvvj9$O:wlvvvvzbvvvvvvvvvvvvllvvbzlbllzbvvvblvvvvvvvvj7#O:uvvvbzvvvlvvvvvvvvllzvzv",
"*****************>****#oX+#**********************%***************=******#ooO#**%****&***************",
"$;5555aa5aggNBVVBna5pgdy5555545q55554455544q552-OX@;55q5ad5tggNVVVBhd5pgga45545554554455445q55551&+ ",
"ekDDDDPPGPUUQ~!~~TLGPIIPMDMMDDDDMDMMFDCMDDDDDDbw$#9kMDDFLPGLIUW~~!!WPFLUIJFDDFSDFMCSFDDCDDDFDDMDbi;+",
"bSFFFGHGFGJJPPIIPPHFHHHFDDFFGDFFFFFFFFFFFFFFDGDb4#jDFFFFHHFGLPPPIIIKHFGHJFFFFFDFFFFFFFFFFFFFFFFFFDMv",
"DDDFDDFFFFFFDDDDDDFFDDFFFFDFFDFFDFFFFFDFFFFFFDDD5*vDFFFFDFFFDDDDDDDDDFFFDFFFFFFFFFFFFFFFFFFFFFFDFFDM",
"FFFFFFFFDFFFFFFFDDGFFFFFFFFFFFFDFFFFFFFFFFFFFFDD5*vFFDFFDFFFFFDFFFDFDFFFFFFFFFDFFFFFFFFFFFFFFFFFFDFD",
"FFFFFFFFFFFFFFDFDDDDFFFFFFFFFFFFFFDFFFFFFFFFFFDz1*bFFFFFFFFDFFFFFFFFFFFFFFFFFFFFFFFFFFFFFFFFFFDDFFSS",
"FFFFFFFFFFFFFFFFFFFFDFFFFFFFFFFFFFScSSSSDDlfffsq$*vDFFDFFFFFFFFFFFFFFFFDFFFFFFFFFFFFDScSSDDDDDMmbbvl",
"FFDFDFFFFFFFFFFFFFDFFFFFFDFDFDFFFDcrecSikM5#####X*bFFFFFFFFFFFFDFFFFFDFFFFFFFDFFFFFDbzkrzzzccclsaq53",
"FFFFFFFFDFFFFFFDFFFFFFFFFFDGFFFFFFScbFPSDLZhyyyt**vFFFFFFFFFFFFFFFFFFFFFFFFFFFFFFFFDSczSDbDCFCmmvhff",
"MDFFFFFFFFFFDFFFFFFFFFFDFFFFFFFDFFDFFHIGPIIPFDDM4*lDFFFDFFDFFFFFFFFFFFFFFDFFFFFFDFFFDDDPIFPIIIPGDmlj",
"ezDDFDFFDDDDDDDDDDDDDDDDDDDDDDDDDDCFDFFFDFGFDDbe$#9kDDDDFFMDDDDDDDDFDDDDDFDDDDDFFDDDDDDDFFFGGFFMbvsw",
"-;555555qq555q55qq555q5tqq5qq555q555q45555555q4;Oo$;5q555555qqq55555555qqq5555555555qqq55555555q4-O ",
"*#***%%********$****##+ooO#********>>>><<<,,>>**##****#*****%**********#++X+%%%**>>%*>>>,,<,,,>>>%##",
"lllllllllllvlllclllvlf6$O;wlllvZZmCAAALREEEYALZbllllllllllllllllllllllzs6#O:wllllZCmCAAALYEEEYLLZvll",
"DFFFGFFFFFFFFFFFFFFFFDz;#uSFFFGPPFPIUUUWQQQWUIKGFFFFFFFFFFFFFFFFDDFGFFDDk;#wSFFFFPPFLIIIIWQQQWIIPGDF",
"DDDDFSSFSSFFFFFFFDFFFFD4*vDFFFFFFDFFFFFGFGGFFFFFFFFFFFFFDDSSFFFFSDFFDDMmb4*vFFFFFFFFFFDFFGGFFFFFFDFF",
"DDFFFFFFFFDDSSSSDDFFDDD5*vFFFFFFFDFFFFFDFFDFFFFFFFFFFFFFziirkSFFzzDDl3=1>+*vFFFFFFFFFFFFFDFFFFFFDFFF",
"DFFFFFFFFDDSSSSSDDFFFDM5*bFFFFDFFFFFFFFFFFFFFFFDFFFFFFFSklbkkSFFbDPFbp3>*O*vFFFFFFFFFFFFFFFFFFFFFFFF",
"FFDDFFFFDFDFSDSDcSFFFFD5*vFFFFFFFFFFFDFFDFFFFFFFFFFFFFFDDGPHDFFGPIIHGPGMr;*lFFFFFFFDFFFFFFFFFFFFFFFF",
"DDDDFFDFDDFFDDDDDDFFFFD5*vFFFFFFFFFFFFFFFFFFFFFFFFFFFFFFFGHGFFFFPLPFFPGDM4*lFFFFFFFFFFFDFFFFFDDFFFFF",
"vvbMbDSDDDFDFFFFDSFFDDD5*vFFFFFFFDFFFFFDFFFDFFFFFFFFFFFFFFFFFFFFFFFFFFDFM5*bFFFFFFFFFFFFFFDFFFFFFFFF",
"qsjlbbSSSDDDDDFDDcFFFDM5*vFFFFFFFFFFFFFFFFFFFDFFFFFFFFFFFFFFDFFFFFFFFFDDD4*lFDFFFFFFFFFFFFFFFFFFDFFF",
"==4sfxvvbmbCDFFFDcDDFFk;$wSDDFFFFFFGFGFFFFGFFFFFFFFFFFFFGFFFFGFFFFFFFGFDk;#wbFFFFFFFFFFFFFFFFFFFFFFF",
"O+++*=;4yujvbMFFDDDllk9$O;wkblvvvvvlvvvlvvvlzvvvvvvbvvvvvvvvvvvvvvvvvvlj9$O:wlbvbvvzvvvvvvbvmvvvvvbm",
" o+++++%OOO%O#O@+##***#oXO#***********&***%*=****&************=*********#ooO#%********&***%***%%*%**",
"&345555tggggggga55pdt54555555555455545455554552=Oo@;45455tdgggggga55pda54554555551-&&&&-$#o.        ",
"wkDDDMDGIUIUUUULFMJPJDDMDMDDDDDDFCDDFDDFFCSFDDbr&+9FFFFFFFPUUUUUIPDFFIGFFFFFFFFFFFFDFFFDDi5;=#;1>;**",
"bSFFFFFFHHHHHHHHFFFPFFFFDDFFFFFDFFFFFFFFFFFFFDDb3%bFFFFFFFFGGGGGGDDFFFDFDFDFFFFFFFFFFFFFFFDDDDMMblls",
"FFFFFFFFFFFFFFDDFFFFFFFFFFDFFFDbbSScckxkccSFDlsa=*FFFDFFFFFFFFFFGDFFGDDFFFFFFDFFFFFFFFFFFFFFFDDDMMbb",
"FFFFFFFFFFFFFFDFFFFFFFFFFFFFFFDkiDkiiiiiiibFD5#+o*FDFFFFFFFFFFFFFFFFDFFFFFFFFFFFDFFFDFFFFDDCFFFDDMMm",
"FFFFFFFFDFFFFFDFFFFFFFFFFFFFFFDbFPFMGJJJFbDFDvu9%%FFFFFFFFFFCFFFFFFFFFFFFFFFFFFFFFFFFDFFFFFFFDDDDDDD",
"FDFFFFFFFFFFFFFFDFFFDFDFFDFFFFFFGUHGUUUUPFFFFFDx;%FFFFFFFFFFFFFFFFFDFFFFFFDFFFFFFFFFFFFFFFFDFFFFFDFD",
"FFFFFFFFFFFFDFFFFFFFFFFFFFFFFFFFFGFFGFFFFFFFFDFD4*FFFFFFFFFFFFFFFFFFFFDFFFFFFDFDFFFFFDFFFFFFFFFFFFFF",
"FFFFFDFFFFFDFFFFFFFFFFFFFFFFFFFFFFFFFFFFFFFFFFFD5*FFFFFFFFFFFFFFFDFFFFFFFFFFFFFFFFDFFFFFFFDFFFFFFFFD",
"bSFFFFFFFFFFFFFFFFFFFFFFFFFFFFFFFFFFFFFFFFFFFFDb4%bFFFFFFFFFFDFFDFFFDDFFFFFFFFFFFDFDFFFFFFFFFFFFFFDD",
"rlDDFFFDDDDFDDDDFFDDDDDFSFDDFDDDDDFDDDDDDFDDDDbi-#9FFFFFFFFFFFFFFFFFDGFDDFFFDDFFFFFDFFDFDDFFFFFFFvy2",
"&;5q5555555q55q55555555qqq55t55t555555y45555q54=Oo$:555q5t555q555555q55555q55555q2;-----&--&----&@o.",
"=>>=******%***%*%*****+ooO#%*%**=*=>>>>>>>**%*%%%%*>>>**%%*%*%%%******%%++o+#*****##OOO+OO@@OOOOOOOO",
"AALAClllxlllllxllvlllj7@O:wlllbCZvZJAAZLAZmvvllvlvJAAZZvlllvllzllllllzvj7$o;wjzlvvbDDFFFDFFDFFFFFFFF",
"UPIUPFFFGFFFFFFFFFFFDDl;$wSFFFFPHGHUPUIUUPHFFFFFDJPUIIPFFFFFGFFFFFFDFFDDl;$wSDFFFFDbDDFFFFFFFFFFFDFD",
"FFFFFFFFFFFbFSFFDFFFMMb1*lDFFFDFFFFFFGFFFFFFDFFFFFFFFFFFFFDFDSSDDDDDDGDbb3*vDFFFFDDDbDFDFDDDDSFFDDDF",
"FFFFFFFFFFbkikbbkbFDy=>+*lFDFDFFFFFFFFFFFFFFFFFFFDFFFFFDFFFDDkrkSbkSFMw>>+*vDDFFFFFFDSSbSSScScSSbSbb",
"DFFFFFFFFGGkkMGFkbFDy;*O*vFFFFFFFFFFFFFFFFFFFFFFFFFFFFFFFFFHGxkbGDkDFDs>&O%vFFFFFFFFFDFFFDFFDFDFFFDF",
"FFFFFFFFFPPGJUUHFDFFMzj-*bFFFFFFFFFCFFFFFFFFFDFDFFFFFFFFFFFPIFHUUPDDDFDbi=*vFFFFFFFFFFFFFFFFFFFFFFFF",
"FFFFFFFFFJJFGKHJFFFFFFb4*vFFFFFDFFFFFFFFFFFFFFFFDFDFFFFFFDFJJFHPPGFFFFDDb4=vFFFFFDFFFFFDFFFFDFFFFFFF",
"FFFFFFFFFFFFFFFFFFFFFFF5*mFFFFFFFFFFFFFFFFFFFFFFFFFFFFFFFFDFFFFFFDDGDFFDF5*zFFFFFFFFFFFFFFFFFFFFFFFF",
"FFFFFFFFFFFFFFFFFFFFDDM4*lDFDFFFFFFFFFFFFFFFFDFDFFFFFFFFFFFGFFFFFFFFFFFFD4*lDFFFFFFFFFFFFFFFFFFFFFFF",
"FFFFFGFFFFFGFGFGFFFFFDk;#wSDFFFGFFGFFFFFFFFFFGFFFFFFFFFFFFFFFFFFFFFFFFFDl;#iSDFFFGFFGFFFFFFGFFFFFDFF",
"vvvvvvvvvvvvvvvxmvvvbj7$+:wlbzblvvvlvvxvvvzvbvllvvbvbvvvvvvvvvvvvvblbvvs9#O:uvvlxvvvvvvvzzvzvvvvvvvv",
"**********%=***=*****%#ooO#**********=***=**************=********=******#OXO%***%=*%=**********=****",
"&;5454pd5adgNVVVVna5agda55555555554545545454q52-Oo$;4555dp5dggNVVVBha5agda55555545454544555554454$O.",
"wkSFDFPPGLUUW!!!~TLFPIILDDDDMMMMDDMFMDDDCDMFDDbw$+9kDDDFPPFLUUW!~~!TLGPUIJDFMMDDFCFSFSFDCbDSFMCFbr-X",
"SSFFFFGGFGHHPUPUPPHFHHHHDFFFDDDFFFFFFFFFFFFFFFDb4*jDDFDFGGFGJHPIIIIPFFHHGFFFFFFFFFFFFFFFFFFFFFFFDb4X",
"SFFFFFFFFFFFFFDDDDFFDDDFFDFFFDGFFFFFFFFFFFFFFDDD5*lDDFFFFFFFDFDDDDDDFFDFDFFFFFFFFFFFFFDFFFFFFFFFFD5X",
"FFFFFFFFFFFFFFFFDFFFFFFFFFFFFFFFFFFFFFFFFFFFDFFD4*vFFDFFFFFFDFFFFFFFFFFFFFFFFFFFFFFFFFFDFFFFFDFFDD5X",
"FFFFFDFFDFFFFFFFFFFFDFFFFFFFFDFFDFFFDFFDFFFDDDDb3=vFFFFFFFFDFFFFFDFFDFFFFFFFFDFFFFFFFDFFFFFFFFFFDk2X",
"DFDFFFFFFFFFFFDFFFFDFFFFFFFFFFFFFFScSSSSSDxjfff9%&vFFFFFFFFFFFFFFFFFFFFFDFDFFFFFFFFDSbbSDSSDlfjssq*o",
"FFFFFFFFFFFFFDFFFFFFFFFFDFFFDFFFFDceecSkkm5#%###o%zFFFFFFDFFFFFFFFFFFFFFFFFFFFFFFFFSkerbSicS5%%%##o.",
"FFFFFFFFFFFFFFFFFFFFFFFFFFFFFFFFFFbczFPbFPChayaq**vFFFFDFFFFFFFFFFFDFFFDFFFFFFFFFFFFbkxFPMFPZhaqyy=.",
"MSFFFFFFFFFFFFFFFFFFFFFDFFFFFFFFFFFDFPPJHIUPFDDb4*jDFFFFFFFFFFFFFFFFFFFFFFFFFFFDFFFFFFFPPFPUULFFDb3.",
"ezDDFFDFDSDDDFSFDDDDDDFDDDFFFDDDFCFFFFFFFGGFFFbi&#9kDFFFDDDDFFFCFDDFDDDDDFDDDDDDFDFDFDDFGDFFFFFFbi-.",
"&1q555555q5q5t55q5q55q5tq555555q555555545545554-Oo$;5555555q5555555q55q5p5qqq555555555q45555555q4-O ",
"##***%****%%%**%%****##o++#*%%*==**>>>,,<<<>>,*&#%%%**%**&%*%********%*%#ooO##****>**>>*>><<<,>>>*%%",
"lvvzllllzzvvlvvvlllvvs6$o-wvvllZFSCAAAAREEERAAZzlllvllllxxllllllllvvllls6$O;wlvzvZZvZAAJLREEEYLLZvxl",
"FFFFGFFFFFFFFFFFFFFFFSl;#wSDFFGPPGKPPPUW!QWWUIPGFFFFGFFFFFFFFFFFFFFFFFFDl;#wbFGFGPPFPIIIUE!QWWUIPFFF",
"SDDDDSSSSDDDSDDDFFFFFFM4%vDDFFFDFFFSFFFFFFFFDDDFDDFFFFFFDDDDFFFFDDFFDMbMb3*vDDDDFFFFFDFDFFDFFFDSFSFS",
"FFFFDFFFFFFFFFzSFFFFFFF4=vFFFFFFFFSkiiiiiiiiiiiiikDFFFFFkiiikDFMkzDFl1=>;+*vFFFDDFFFbcFFFFFFFFFFFFFF",
"FFFFFFFDDFFFFDDSbDFFFFD5*vFFFFFFFSkee888880888808ibFFFFSlkxkkFFFbDPFmp31*O%vFFFFFFDbxFFFFFFFFFFFFFFF",
"FFFDFFFFFFFFFDFFSSFFFFM5*vFFFFFDSir00080800888888ebFFFFFFGPGSFFFPIIGGPGmi=*bFFFFFDSbFDFFFDFFFFFFFFFF",
"DFFFFFFFFFFFFFFDDbFFFFM5*vFFFFFFSi000008008088e88ibFFFFFFFPGFFFFHPPGFPGDb4*zFFFFFDSFFFFFFFFFFFFFFFFF",
"DSSDMMbMMDDDDFFFDSDFFFD4*vFDDFFFSe8800000088866:69bFFFFFFFFFFFFFDFFFFFFFDq*vFFFFFFSFFFDFFFFFMFFFDDDD",
"llfssffjlbDDFFFDDSDDFFD4*zFFFFFFbe8800800086:@OOo=zFFFFFFFFFFFFFDDFFFFFDD4*zFFFFFDzFDFFFFFDDbbvvlllv",
"41112455ylbDFFFFFSSDFSc;#wSDFFDSk88e88e8887:@o   %zFFFFFFDFFFDFFDFFFFFDDl;#wSDFFDSSDFFFFDDDbblfqq542",
"++#%#*14ybmDDDFFDDbDFSe&@7cDDDDcre888888086@o X  *vDFFFFFFFFFFFFFFFFFDFSe-O6zDFFDcDDFFFFDDMzsw44=**#"
};
